<?xml version="1.0" encoding="UTF-8" standalone="no"?><!DOCTYPE svg PUBLIC "-//W3C//DTD SVG 1.1//EN" "http://www.w3.org/Graphics/SVG/1.1/DTD/svg11.dtd"><svg width="100%" height="100%" viewBox="0 0 2250 2250" version="1.1" xmlns="http://www.w3.org/2000/svg" xmlns:xlink="http://www.w3.org/1999/xlink" xml:space="preserve" xmlns:serif="http://www.serif.com/" style="fill-rule:evenodd;clip-rule:evenodd;stroke-linejoin:round;stroke-miterlimit:2;"><g><g><path d="M746.836,937.239c166.963,-0 302.516,34.703 302.516,77.447c-0,42.744 -135.553,77.446 -302.516,77.446c-166.963,0 -302.516,-34.702 -302.516,-77.446c0,-42.744 135.553,-77.447 302.516,-77.447Zm-175.602,43.852c-26.979,0 -48.883,15.053 -48.883,33.595c-0,18.541 21.904,33.594 48.883,33.594c26.98,0 48.884,-15.053 48.884,-33.594c-0,-18.542 -21.904,-33.595 -48.884,-33.595Z" style="fill:#4caf50;"/><path d="M1491.58,1207.13l-149.672,-150.163l-0,-211.498l84.322,0l-0,176.6l124.378,124.786l-59.028,60.275Zm-149.672,-446.262l-0,-84.601l84.322,0l-0,84.601l-84.322,0Zm295.131,296.099l0,-84.601l84.322,-0l-0,84.601l-84.322,-0Zm-295.131,296.098l-0,-84.601l84.322,-0l-0,84.601l-84.322,-0Zm-295.135,-296.098l-0,-84.601l84.325,-0l0,84.601l-84.325,-0Zm337.294,380.699c-58.322,-0 -113.133,-11.104 -164.431,-33.312c-51.297,-22.209 -95.915,-52.348 -133.862,-90.415c-37.946,-38.07 -67.987,-82.838 -90.12,-134.305c-22.136,-51.462 -33.203,-106.454 -33.203,-164.966c0,-58.516 11.067,-113.507 33.203,-164.97c22.133,-51.467 52.174,-96.231 90.12,-134.302c37.947,-38.07 82.565,-68.209 133.862,-90.417c51.298,-22.205 106.109,-33.309 164.431,-33.309c58.326,-0 113.133,11.104 164.431,33.309c51.297,22.208 95.919,52.347 133.865,90.417c37.943,38.071 67.984,82.835 90.121,134.302c22.132,51.463 33.202,106.454 33.202,164.97c0,58.512 -11.07,113.504 -33.202,164.966c-22.137,51.467 -52.178,96.235 -90.121,134.305c-37.946,38.067 -82.568,68.206 -133.865,90.415c-51.298,22.208 -106.105,33.312 -164.431,33.312Zm-0,-84.601c94.162,-0 173.918,-32.783 239.268,-98.345c65.351,-65.566 98.026,-145.584 98.026,-240.052c-0,-94.472 -32.675,-174.49 -98.026,-240.052c-65.35,-65.566 -145.106,-98.349 -239.268,-98.349c-94.159,0 -173.915,32.783 -239.265,98.349c-65.354,65.562 -98.029,145.58 -98.029,240.052c-0,94.468 32.675,174.486 98.029,240.052c65.35,65.562 145.106,98.345 239.265,98.345Z" style="fill:#4caf50;fill-rule:nonzero;"/></g><g transform="matrix(1,0,0,0.997116,0,4.75913)"><g transform="matrix(216.601,0,0,216.601,2044.18,1650.11)"></g><text x="317.822px" y="1650.11px" style="font-family:'MVBoli', 'MV Boli';font-size:216.601px;fill:#4caf50;">Mon Petit Menu</text></g></g></svg>